# xmcd
#
# Track frame offsets:
#	150
#	13531
#	27326
#	38176
#	51401
#	61103
#	72764
#	84833
#	97237
#	109051
#
# Disc length: 1592 seconds
#
# Revision: 1
# Processed by: cddbd v1.5.2PL0 Copyright (c) Steve Scherf et al.
# Submitted via: audiograbber 1.83.01
#
DISCID=7c06360a
DTITLE=Porter Wagoner - Porter Wagoner
DYEAR=1982
DGENRE=Country
TTITLE0=Country Bo-Bo
TTITLE1=Willie Bodine
TTITLE2=Enough To Make A Grown Man Cry
TTITLE3=Happy Birthday Jesus
TTITLE4=I'm Looking For Someone To Love
TTITLE5=Girl With The Blue Velvet Band
TTITLE6=Everyday's Just Like Sunday
TTITLE7=Hold On Tight
TTITLE8=A Fool Like Me
TTITLE9=Bones
EXTD=
EXTT0=
EXTT1=
EXTT2=
EXTT3=
EXTT4=
EXTT5=
EXTT6=
EXTT7=
EXTT8=
EXTT9=
PLAYORDER=
